<svg width="2246" height="429" viewBox="0 0 2246 429" fill="none" xmlns="http://www.w3.org/2000/svg">
<path d="M232.368 0H62.8683L0 286.023H169.707L232.368 0Z" fill="#171719"/>
<path d="M417.367 0H243.724L180.855 286.023H352.469L417.367 0Z" fill="#171719"/>
<path d="M595.351 0H426.569L331.984 428.184H503.597L595.351 0Z" fill="#171719"/>
<path d="M857.339 222.973C886.262 222.973 899.935 209.3 905.194 196.153H988.809C974.084 250.319 932.014 286.078 858.917 286.078C769.517 286.078 715.352 227.18 715.352 143.039C715.352 61.002 768.465 0 854.184 0C946.213 0 993.016 67.3126 993.016 165.126H799.492C799.492 202.99 827.364 222.973 857.339 222.973ZM854.184 57.8467C822.105 57.8467 799.492 76.7784 799.492 114.116H908.875C908.875 76.7784 886.262 57.8467 854.184 57.8467Z" fill="#171719"/>
<path d="M1326.72 0C1380.89 0 1412.97 34.1821 1412.97 95.7101V277.664H1327.78V122.53C1327.78 82.0372 1319.36 68.3643 1289.39 68.3643C1262.57 68.3643 1245.74 84.6666 1245.74 122.004V277.664H1161.6V122.53C1161.6 82.0372 1153.18 68.3643 1123.21 68.3643C1096.91 68.3643 1079.56 84.6666 1079.56 122.004V277.664H995.419V8.41406H1079.56V47.3291H1080.61C1094.81 22.6128 1124.26 0 1164.75 0C1199.99 0 1224.7 19.4575 1235.22 47.3291H1236.27C1259.41 20.5093 1283.08 0 1326.72 0Z" fill="#171719"/>
<path d="M1588.7 0C1660.22 0 1705.97 54.6915 1705.97 143.039C1705.97 231.387 1660.22 286.078 1588.7 286.078C1549.78 286.078 1521.39 265.043 1510.87 250.845H1509.82V425.574H1425.67V8.41406H1509.82V35.2339H1510.87C1521.39 21.0352 1549.78 0 1588.7 0ZM1566.61 222.973C1600.79 222.973 1621.83 195.627 1621.83 143.039C1621.83 90.4513 1600.79 63.1055 1566.61 63.1055C1532.43 63.1055 1511.39 90.4513 1511.39 143.039C1511.39 195.627 1532.43 222.973 1566.61 222.973Z" fill="#171719"/>
<path d="M1710.59 8.41406H1794.74V277.664H1710.59V8.41406Z" fill="#171719"/>
<path d="M1960.54 3.68114C1967.9 3.68114 1974.21 3.68114 1983.67 5.78467V79.4078H1982.62C1939.5 71.5196 1893.75 95.1842 1893.75 152.505V277.664H1809.61V8.41406H1893.75V52.5879H1894.8C1907.95 22.6128 1931.09 3.68114 1960.54 3.68114Z" fill="#171719"/>
<path d="M2109.38 222.973C2138.31 222.973 2151.98 209.3 2157.24 196.153H2240.85C2226.13 250.319 2184.06 286.078 2110.96 286.078C2021.56 286.078 1967.4 227.18 1967.4 143.039C1967.4 61.002 2020.51 0 2106.23 0C2198.26 0 2245.06 67.3126 2245.06 165.126H2051.54C2051.54 202.99 2079.41 222.973 2109.38 222.973ZM2106.23 57.8467C2074.15 57.8467 2051.54 76.7784 2051.54 114.116H2160.92C2160.92 76.7784 2138.31 57.8467 2106.23 57.8467Z" fill="#171719"/>
</svg>
